<?xml version="1.0" encoding="UTF-8" standalone="no"?>
<!-- Created with Inkscape (http://www.inkscape.org/) -->

<svg
   version="1.1"
   id="svg1"
   width="409.25067"
   height="96.702667"
   viewBox="0 0 409.25067 96.702667"
   sodipodi:docname="illustflip-1d.svg"
   inkscape:version="1.3.2 (091e20e, 2023-11-25, custom)"
   inkscape:export-filename="illustflip-1d.pdf"
   inkscape:export-xdpi="96"
   inkscape:export-ydpi="96"
   xmlns:inkscape="http://www.inkscape.org/namespaces/inkscape"
   xmlns:sodipodi="http://sodipodi.sourceforge.net/DTD/sodipodi-0.dtd"
   xmlns="http://www.w3.org/2000/svg"
   xmlns:svg="http://www.w3.org/2000/svg">
  <defs
     id="defs1" />
  <sodipodi:namedview
     id="namedview1"
     pagecolor="#ffffff"
     bordercolor="#000000"
     borderopacity="0.25"
     inkscape:showpageshadow="2"
     inkscape:pageopacity="0.0"
     inkscape:pagecheckerboard="0"
     inkscape:deskcolor="#d1d1d1"
     inkscape:zoom="5.0238158"
     inkscape:cx="155.65857"
     inkscape:cy="82.90511"
     inkscape:window-width="3840"
     inkscape:window-height="2054"
     inkscape:window-x="1909"
     inkscape:window-y="-11"
     inkscape:window-maximized="1"
     inkscape:current-layer="g1">
    <inkscape:page
       x="0"
       y="0"
       inkscape:label="1"
       id="page1"
       width="409.25067"
       height="96.702667"
       margin="0"
       bleed="0" />
  </sodipodi:namedview>
  <g
     id="g1"
     inkscape:groupmode="layer"
     inkscape:label="1">
    <path
       id="path1"
       d="M -119.05627,0 H 187.08844"
       style="fill:none;stroke:#000000;stroke-width:0.79701;stroke-linecap:butt;stroke-linejoin:miter;stroke-miterlimit:10;stroke-dasharray:none;stroke-opacity:1"
       transform="matrix(1.3333333,0,0,-1.3333333,159.27067,58.636)" />
    <path
       id="path2"
       d="m -95.24515,0 c 0,3.75728 -3.0458,6.80309 -6.8031,6.80309 -3.75728,0 -6.8031,-3.04581 -6.8031,-6.80309 0,-3.75728 3.04582,-6.80309 6.8031,-6.80309 3.7573,0 6.8031,3.04581 6.8031,6.80309 z"
       style="fill:#4c4cff;fill-opacity:1;fill-rule:nonzero;stroke:#000000;stroke-width:0.79701;stroke-linecap:butt;stroke-linejoin:miter;stroke-miterlimit:10;stroke-dasharray:none;stroke-opacity:1"
       transform="matrix(1.3333333,0,0,-1.3333333,159.27067,58.636)" />
    <path
       id="path3"
       d="m -61.22906,0 c 0,3.75728 -3.04581,6.80309 -6.80311,6.80309 -3.75727,0 -6.80308,-3.04581 -6.80308,-6.80309 0,-3.75728 3.04581,-6.80309 6.80308,-6.80309 3.7573,0 6.80311,3.04581 6.80311,6.80309 z"
       style="fill:#4c4cff;fill-opacity:1;fill-rule:nonzero;stroke:#000000;stroke-width:0.79701;stroke-linecap:butt;stroke-linejoin:miter;stroke-miterlimit:10;stroke-dasharray:none;stroke-opacity:1"
       transform="matrix(1.3333333,0,0,-1.3333333,159.27067,58.636)" />
    <path
       id="path4"
       d="m -27.21298,0 c 0,3.75728 -3.04581,6.80309 -6.8031,6.80309 -3.75728,0 -6.80309,-3.04581 -6.80309,-6.80309 0,-3.75728 3.04581,-6.80309 6.80309,-6.80309 3.75729,0 6.8031,3.04581 6.8031,6.80309 z"
       style="fill:#4c4c4c;fill-opacity:1;fill-rule:nonzero;stroke:#000000;stroke-width:0.79701;stroke-linecap:butt;stroke-linejoin:miter;stroke-miterlimit:10;stroke-dasharray:none;stroke-opacity:1"
       transform="matrix(1.3333333,0,0,-1.3333333,159.27067,58.636)" />
    <path
       id="path5"
       d="m -27.21298,0 c 0,3.75728 -3.04581,6.80309 -6.8031,6.80309 -3.75728,0 -6.80309,-3.04581 -6.80309,-6.80309 0,-3.75728 3.04581,-6.80309 6.80309,-6.80309 3.75729,0 6.8031,3.04581 6.8031,6.80309 z"
       style="fill:none;stroke:#000000;stroke-width:0.79701;stroke-linecap:butt;stroke-linejoin:miter;stroke-miterlimit:10;stroke-dasharray:none;stroke-opacity:1"
       transform="matrix(1.3333333,0,0,-1.3333333,159.27067,58.636)" />
    <path
       id="path6"
       d="M 6.80309,0 C 6.80309,3.75728 3.75728,6.80309 0,6.80309 -3.75728,6.80309 -6.80309,3.75728 -6.80309,0 c 0,-3.75728 3.04581,-6.80309 6.80309,-6.80309 3.75728,0 6.80309,3.04581 6.80309,6.80309 z"
       style="fill:#4c4c4c;fill-opacity:1;fill-rule:nonzero;stroke:#000000;stroke-width:0.79701;stroke-linecap:butt;stroke-linejoin:miter;stroke-miterlimit:10;stroke-dasharray:none;stroke-opacity:1"
       transform="matrix(1.3333333,0,0,-1.3333333,159.27067,58.636)" />
    <path
       id="path7"
       d="M 6.80309,0 C 6.80309,3.75728 3.75728,6.80309 0,6.80309 -3.75728,6.80309 -6.80309,3.75728 -6.80309,0 c 0,-3.75728 3.04581,-6.80309 6.80309,-6.80309 3.75728,0 6.80309,3.04581 6.80309,6.80309 z"
       style="fill:none;stroke:#000000;stroke-width:0.79701;stroke-linecap:butt;stroke-linejoin:miter;stroke-miterlimit:10;stroke-dasharray:none;stroke-opacity:1"
       transform="matrix(1.3333333,0,0,-1.3333333,159.27067,58.636)" />
    <path
       id="path8"
       d="m 40.81917,0 c 0,3.75728 -3.04581,6.80309 -6.80309,6.80309 -3.75729,0 -6.8031,-3.04581 -6.8031,-6.80309 0,-3.75728 3.04581,-6.80309 6.8031,-6.80309 3.75728,0 6.80309,3.04581 6.80309,6.80309 z"
       style="fill:#4c4c4c;fill-opacity:1;fill-rule:nonzero;stroke:#000000;stroke-width:0.79701;stroke-linecap:butt;stroke-linejoin:miter;stroke-miterlimit:10;stroke-dasharray:none;stroke-opacity:1"
       transform="matrix(1.3333333,0,0,-1.3333333,159.27067,58.636)" />
    <path
       id="path9"
       d="m 40.81917,0 c 0,3.75728 -3.04581,6.80309 -6.80309,6.80309 -3.75729,0 -6.8031,-3.04581 -6.8031,-6.80309 0,-3.75728 3.04581,-6.80309 6.8031,-6.80309 3.75728,0 6.80309,3.04581 6.80309,6.80309 z"
       style="fill:none;stroke:#000000;stroke-width:0.79701;stroke-linecap:butt;stroke-linejoin:miter;stroke-miterlimit:10;stroke-dasharray:none;stroke-opacity:1"
       transform="matrix(1.3333333,0,0,-1.3333333,159.27067,58.636)" />
    <path
       id="path10"
       d="m 74.83525,0 c 0,3.75728 -3.04581,6.80309 -6.80308,6.80309 -3.7573,0 -6.80311,-3.04581 -6.80311,-6.80309 0,-3.75728 3.04581,-6.80309 6.80311,-6.80309 3.75727,0 6.80308,3.04581 6.80308,6.80309 z"
       style="fill:#4c4c4c;fill-opacity:1;fill-rule:nonzero;stroke:#000000;stroke-width:0.79701;stroke-linecap:butt;stroke-linejoin:miter;stroke-miterlimit:10;stroke-dasharray:none;stroke-opacity:1"
       transform="matrix(1.3333333,0,0,-1.3333333,159.27067,58.636)" />
    <path
       id="path11"
       d="m 74.83525,0 c 0,3.75728 -3.04581,6.80309 -6.80308,6.80309 -3.7573,0 -6.80311,-3.04581 -6.80311,-6.80309 0,-3.75728 3.04581,-6.80309 6.80311,-6.80309 3.75727,0 6.80308,3.04581 6.80308,6.80309 z"
       style="fill:none;stroke:#000000;stroke-width:0.79701;stroke-linecap:butt;stroke-linejoin:miter;stroke-miterlimit:10;stroke-dasharray:none;stroke-opacity:1"
       transform="matrix(1.3333333,0,0,-1.3333333,159.27067,58.636)" />
    <path
       id="path12"
       d="m 108.85135,0 c 0,3.75728 -3.04582,6.80309 -6.8031,6.80309 -3.7573,0 -6.8031,-3.04581 -6.8031,-6.80309 0,-3.75728 3.0458,-6.80309 6.8031,-6.80309 3.75728,0 6.8031,3.04581 6.8031,6.80309 z"
       style="fill:#ffb3b3;fill-opacity:1;fill-rule:nonzero;stroke:#000000;stroke-width:0.3985;stroke-linecap:butt;stroke-linejoin:miter;stroke-miterlimit:10;stroke-dasharray:none;stroke-opacity:1"
       transform="matrix(1.3333333,0,0,-1.3333333,159.27067,58.636)" />
    <path
       id="path13"
       d="m 142.86743,0 c 0,3.75728 -3.04581,6.80309 -6.8031,6.80309 -3.75729,0 -6.8031,-3.04581 -6.8031,-6.80309 0,-3.75728 3.04581,-6.80309 6.8031,-6.80309 3.75729,0 6.8031,3.04581 6.8031,6.80309 z"
       style="fill:#ff4c4c;fill-opacity:1;fill-rule:nonzero;stroke:#000000;stroke-width:0.79701;stroke-linecap:butt;stroke-linejoin:miter;stroke-miterlimit:10;stroke-dasharray:none;stroke-opacity:1"
       transform="matrix(1.3333333,0,0,-1.3333333,159.27067,58.636)" />
    <path
       id="path14"
       d="m 176.88351,0 c 0,3.75728 -3.04581,6.80309 -6.8031,6.80309 -3.75729,0 -6.8031,-3.04581 -6.8031,-6.80309 0,-3.75728 3.04581,-6.80309 6.8031,-6.80309 3.75729,0 6.8031,3.04581 6.8031,6.80309 z"
       style="fill:#ff4c4c;fill-opacity:1;fill-rule:nonzero;stroke:#000000;stroke-width:0.79701;stroke-linecap:butt;stroke-linejoin:miter;stroke-miterlimit:10;stroke-dasharray:none;stroke-opacity:1"
       transform="matrix(1.3333333,0,0,-1.3333333,159.27067,58.636)" />
    <path
       id="path15"
       d="m 87.76155,6.80309 c 0,0 -11.49649,2.22191 -27.21298,3.40182 -15.71649,1.1799 -80.01946,4.15828 -86.06061,5.1022 -6.04116,0.94389 46.0598,1.22893 42.52005,1.7009 -3.53973,0.47199 -73.9317,0.75702 -68.03212,1.70091 5.8996,0.94393 110.55223,5.10221 110.55223,5.10221"
       style="fill:none;stroke:#000000;stroke-width:0.79701;stroke-linecap:butt;stroke-linejoin:miter;stroke-miterlimit:10;stroke-dasharray:none;stroke-opacity:1"
       transform="matrix(1.3333333,0,0,-1.3333333,159.27067,58.636)" />
    <path
       id="path16"
       d="m 59.52812,23.81113 c 0,0 -84.34945,4.06074 -102.0482,1.70091 C -60.21881,23.1522 -68.03217,6.80309 -67.72719,7.44127"
       style="fill:none;stroke:#0000ff;stroke-width:0.79701;stroke-linecap:butt;stroke-linejoin:miter;stroke-miterlimit:10;stroke-dasharray:none;stroke-opacity:1"
       transform="matrix(1.3333333,0,0,-1.3333333,159.27067,58.636)" />
    <path
       id="path17"
       d="M -1.55415,2.0722 C -1.42464,1.29512 0,0.1295 0.38852,0 0,-0.1295 -1.42464,-1.29512 -1.55415,-2.0722"
       style="fill:none;stroke:#0000ff;stroke-width:0.6376;stroke-linecap:round;stroke-linejoin:round;stroke-miterlimit:10;stroke-dasharray:none;stroke-opacity:1"
       transform="matrix(-0.57486667,1.2029333,1.2029333,0.57486667,68.967773,48.714307)" />
    <path
       id="path20"
       d="m 59.52812,23.81113 c 0,0 48.90891,0.6589 59.52815,-1.70092 C 129.6755,19.75038 136.06433,6.80309 135.75134,7.4374"
       style="fill:none;stroke:#ff0000;stroke-width:0.79701;stroke-linecap:butt;stroke-linejoin:miter;stroke-miterlimit:10;stroke-dasharray:none;stroke-opacity:1"
       transform="matrix(1.3333333,0,0,-1.3333333,159.27067,58.636)" />
    <path
       id="path21"
       d="M -1.55415,2.0722 C -1.42464,1.29512 0,0.1295 0.38852,0 0,-0.1295 -1.42464,-1.29512 -1.55415,-2.0722"
       style="fill:none;stroke:#ff0000;stroke-width:0.6376;stroke-linecap:round;stroke-linejoin:round;stroke-miterlimit:10;stroke-dasharray:none;stroke-opacity:1"
       transform="matrix(0.58996,1.19564,1.19564,-0.58996,340.27244,48.719467)" />
    <path
       id="path26"
       d="m 108.85135,0 c 0,3.75728 -3.04582,6.80309 -6.8031,6.80309 -3.7573,0 -6.8031,-3.04581 -6.8031,-6.80309 0,-3.75728 3.0458,-6.80309 6.8031,-6.80309 3.75728,0 6.8031,3.04581 6.8031,6.80309 z"
       style="fill:#ff4c4c;fill-opacity:1;fill-rule:nonzero;stroke:#000000;stroke-width:0.79701;stroke-linecap:butt;stroke-linejoin:miter;stroke-miterlimit:10;stroke-dasharray:none;stroke-opacity:1"
       transform="matrix(1.3333333,0,0,-1.3333333,159.27067,58.636)" />
    <path
       id="path27"
       d="m 94.56465,0 9.35422,6.46312 C 100.63123,12.1575 93.34956,14.10861 87.65518,10.82097 81.96078,7.53333 80.00967,0.25168 83.29732,-5.4427 c 3.28764,-5.69438 10.56929,-7.6455 16.26368,-4.35785 1.80942,1.04458 3.31327,2.54845 4.35787,4.35785 z"
       style="fill:#fff200;fill-opacity:1;fill-rule:nonzero;stroke:#000000;stroke-width:0.79701;stroke-linecap:butt;stroke-linejoin:miter;stroke-miterlimit:10;stroke-dasharray:none;stroke-opacity:1"
       transform="matrix(1.3333333,0,0,-1.3333333,159.27067,58.636)" />
    <path
       id="path28"
       d="m 95.5851,7.48355 c 0,0.56357 -0.45688,1.02043 -1.02045,1.02043 -0.56355,0 -1.02043,-0.45686 -1.02043,-1.02043 0,-0.56357 0.45688,-1.02043 1.02043,-1.02043 0.56357,0 1.02045,0.45686 1.02045,1.02043 z"
       style="fill:#000000;fill-opacity:1;fill-rule:nonzero;stroke:none"
       transform="matrix(1.3333333,0,0,-1.3333333,159.27067,58.636)" />
    <path
       id="path29"
       d="m -40.81917,-10.35493 c 0.74718,-1.49444 2.49069,-2.4907 4.98139,-2.4907 H 29.0347 c 2.49069,0 4.2342,-0.99626 4.98138,-2.49069 0.74718,1.49443 2.49069,2.49069 4.98139,2.49069 h 64.87251 c 2.49069,0 4.23421,0.99626 4.98138,2.4907"
       style="fill:none;stroke:#000000;stroke-width:0.79701;stroke-linecap:butt;stroke-linejoin:miter;stroke-miterlimit:10;stroke-dasharray:none;stroke-opacity:1"
       transform="matrix(1.3333333,0,0,-1.3333333,159.27067,58.636)" />
    <path
       id="path30"
       d="m 198.94892,92.145835 c -0.0946,0.409973 -0.25229,1.009162 -0.25229,1.135308 0,0.504581 0.37844,0.725335 0.78841,0.725335 0.31536,0 0.78841,-0.189218 0.97763,-0.725335 0.0315,-0.06307 0.3469,-1.324525 0.50458,-1.986788 l 0.59919,-2.428296 c 0.15768,-0.59919 0.31536,-1.166843 0.47304,-1.79757 0.0946,-0.441508 0.31536,-1.229916 0.3469,-1.324525 0.37844,-0.85148 1.79757,-3.279776 4.35201,-3.279776 1.19838,0 1.45067,0.977626 1.45067,1.860642 0,1.671425 -1.32452,5.108883 -1.7345,6.275726 -0.25229,0.59919 -0.28382,0.914553 -0.28382,1.229916 0,1.261453 0.94609,2.176006 2.20754,2.176006 2.5229,0 3.50053,-3.910503 3.50053,-4.131257 0,-0.25229 -0.22075,-0.25229 -0.31536,-0.25229 -0.25229,0 -0.25229,0.06307 -0.40997,0.473044 -0.53612,1.829106 -1.41914,3.342849 -2.71213,3.342849 -0.47304,0 -0.66226,-0.283827 -0.66226,-0.883016 0,-0.693799 0.25229,-1.324526 0.50458,-1.923716 0.50458,-1.419133 1.60835,-4.35201 1.60835,-5.89729 0,-1.797569 -1.1353,-2.869804 -3.05902,-2.869804 -2.4283,0 -3.72128,1.734497 -4.19433,2.333687 -0.12614,-1.482206 -1.22992,-2.333687 -2.45983,-2.333687 -1.22992,0 -1.7345,1.040698 -2.01833,1.545279 -0.40997,0.914553 -0.7884,2.491369 -0.7884,2.585978 0,0.283827 0.25229,0.283827 0.31536,0.283827 0.25229,0 0.28383,-0.03154 0.44151,-0.630727 0.47304,-1.892178 1.00916,-3.185167 1.95525,-3.185167 0.53612,0 0.85148,0.346899 0.85148,1.229916 0,0.567654 -0.0946,0.851481 -0.44151,2.239078 z m 0,0"
       style="fill:#000000;fill-opacity:1;fill-rule:nonzero;stroke:none;stroke-width:2.6911"
       aria-label="n" />
    <g
       stroke="#000000"
       fill="#000000"
       stroke-width="0"
       transform="matrix(0.02782667,0,0,-0.02782667,45.309015,27.151941)"
       id="g7">
      <g
         data-mml-node="math"
         data-latex="\color{blue} \text{flip}"
         data-semantic-structure="0"
         id="g6">
        <g
           data-mml-node="mstyle"
           fill="#0000ff"
           stroke="#0000ff"
           data-latex="\color{blue} \text{flip}"
           id="g5">
          <g
             data-mml-node="mtext"
             data-latex="\text{flip}"
             data-semantic-type="text"
             data-semantic-role="unknown"
             data-semantic-font="normal"
             data-semantic-annotation="clearspeak:unit;nemeth:number;depth:1"
             data-semantic-id="0"
             data-semantic-attributes="latex:\color{blue} \text{flip}"
             aria-level="0"
             data-speech-node="true"
             id="g4">
            <path
               id="use1"
               d="M 265,705 C 176,705 110,633 110,544 V 434 H 33 v -38 h 77 V 79 C 110,60 107,48 100,44 93,40 71,39 34,39 V 0 l 115,3 c 42,1 85,0 128,-3 v 39 h -24 c -33,0 -54,2 -61,7 -7,5 -10,17 -10,35 v 315 h 112 v 38 H 179 v 111 c 0,60 31,130 86,130 8,0 15,-1 22,-3 -15,-8 -23,-22 -23,-41 0,-31 15,-47 46,-47 31,0 47,16 47,48 0,45 -47,73 -92,73 z" />
            <path
               id="use2"
               d="M 450,3 561,0 v 39 c -36,0 -58,1 -65,5 -7,4 -10,16 -10,35 V 694 L 339,683 v -38 c 35,0 57,-3 64,-9 7,-6 11,-20 11,-43 V 79 c 0,-19 -3,-31 -10,-35 -7,-4 -29,-5 -65,-5 V 0 Z" />
            <path
               id="use3"
               d="m 778,601 c 0,30 -25,56 -55,56 -30,0 -56,-26 -56,-56 0,-30 25,-57 55,-57 31,0 56,26 56,57 M 727,3 831,0 v 39 c -33,0 -53,2 -59,6 -6,4 -8,15 -8,33 V 445 L 621,433 v -38 c 33,0 54,-3 61,-8 7,-5 10,-19 10,-42 V 79 c 0,-19 -3,-31 -10,-35 -7,-4 -29,-5 -65,-5 V 0 Z" />
            <path
               id="use4"
               d="m 1160,-13 c 62,0 115,22 158,67 43,45 65,98 65,161 0,61 -20,113 -59,157 -41,47 -91,70 -151,70 -51,0 -95,-20 -133,-59 v 59 L 890,431 v -38 c 37,0 59,-2 66,-7 7,-5 11,-18 11,-39 v -462 c 0,-19 -4,-31 -11,-35 -7,-4 -29,-5 -66,-5 v -39 l 114,3 115,-3 v 39 c -37,0 -58,1 -65,5 -7,4 -11,16 -11,35 V 44 c 22,-31 65,-57 117,-57 m 6,422 c 41,0 73,-23 98,-69 19,-39 29,-80 29,-125 0,-47 -11,-90 -33,-129 -26,-47 -61,-70 -104,-70 -42,0 -75,20 -100,59 -9,13 -13,26 -13,39 v 219 c 29,51 70,76 123,76 z" />
          </g>
        </g>
      </g>
    </g>
    <g
       stroke="#000000"
       fill="#000000"
       stroke-width="0"
       transform="matrix(0.02612772,0,0,-0.02612772,258.94604,19.139325)"
       id="g14">
      <g
         data-mml-node="math"
         data-latex="\color{red} \text{pas de flip}"
         data-semantic-structure="0"
         id="g13">
        <g
           data-mml-node="mstyle"
           fill="#ff0000"
           stroke="#ff0000"
           data-latex="\color{red} \text{pas de flip}"
           id="g12">
          <g
             data-mml-node="mtext"
             data-latex="\text{pas de flip}"
             data-semantic-type="text"
             data-semantic-role="text"
             data-semantic-font="normal"
             data-semantic-annotation="clearspeak:unit;nemeth:number;depth:1"
             data-semantic-id="0"
             data-semantic-attributes="latex:\color{red} \text{pas de flip}"
             aria-level="0"
             data-speech-node="true"
             id="g11">
            <path
               id="use1-0"
               d="m 298,-13 c 62,0 115,22 158,67 43,45 65,98 65,161 0,61 -20,113 -59,157 -41,47 -91,70 -151,70 -51,0 -95,-20 -133,-59 v 59 L 28,431 v -38 c 37,0 59,-2 66,-7 7,-5 11,-18 11,-39 v -462 c 0,-19 -4,-31 -11,-35 -7,-4 -29,-5 -66,-5 v -39 l 114,3 115,-3 v 39 c -37,0 -58,1 -65,5 -7,4 -11,16 -11,35 V 44 c 22,-31 65,-57 117,-57 m 6,422 c 41,0 73,-23 98,-69 19,-39 29,-80 29,-125 0,-47 -11,-90 -33,-129 -26,-47 -61,-70 -104,-70 -42,0 -75,20 -100,59 -9,13 -13,26 -13,39 v 219 c 29,51 70,76 123,76 z" />
            <path
               id="use2-3"
               d="m 1039,91 v 59 h -32 V 91 c 0,-39 -11,-59 -32,-59 -20,0 -32,25 -32,45 v 197 c 0,35 -4,61 -11,79 -24,59 -93,95 -163,95 -77,0 -153,-43 -153,-115 0,-33 17,-50 50,-50 33,0 49,16 49,49 0,29 -15,46 -46,49 22,25 55,38 98,38 62,0 100,-57 100,-122 V 264 C 789,259 730,247 689,228 622,197 588,154 588,97 c 0,-26 10,-48 29,-65 32,-29 76,-43 132,-43 59,0 101,25 127,76 7,-38 35,-71 78,-71 53,0 85,42 85,97 M 756,18 c -46,0 -84,34 -84,80 0,93 97,133 195,138 V 141 C 867,74 823,18 756,18 Z" />
            <path
               id="use3-7"
               d="m 1416,130 c 0,76 -52,124 -155,144 -47,9 -77,20 -93,31 -16,11 -24,27 -24,46 0,47 35,70 105,70 68,0 105,-38 110,-115 1,-8 6,-12 16,-12 11,0 17,9 17,27 v 99 c 0,19 -5,28 -15,28 -11,0 -26,-18 -36,-26 -25,17 -56,26 -92,26 -89,0 -160,-40 -160,-125 0,-34 14,-63 43,-86 35,-29 68,-35 131,-46 65,-13 98,-42 98,-87 0,-57 -35,-86 -106,-86 -69,0 -113,46 -132,137 -3,13 -8,20 -17,20 -11,0 -17,-10 -17,-29 V 17 c 0,-19 5,-28 15,-28 3,0 8,3 16,10 18,16 10,13 28,31 29,-27 65,-41 107,-41 95,0 161,49 161,141 z" />
            <path
               id="use4-8"
               d="" />
            <path
               id="use5"
               d="m 2156,-11 153,11 v 38 c -36,0 -57,2 -65,8 -8,6 -12,21 -12,44 v 604 l -149,-11 v -38 c 35,0 57,-3 65,-9 8,-6 11,-20 11,-43 V 390 c -32,37 -72,55 -120,55 -62,0 -115,-22 -158,-67 -43,-45 -65,-99 -65,-162 0,-61 20,-114 61,-159 41,-45 91,-68 152,-68 51,0 94,19 127,58 m -113,368 c 43,0 78,-19 103,-57 7,-11 10,-22 10,-35 V 121 c 0,-13 -3,-24 -10,-35 -28,-45 -66,-67 -113,-67 -41,0 -74,20 -100,61 -18,30 -27,75 -27,135 0,109 37,200 137,200 z" />
            <path
               id="use6"
               d="m 2753,251 c 0,115 -67,197 -179,197 -60,0 -110,-23 -151,-70 -38,-44 -57,-97 -57,-158 0,-63 21,-116 63,-162 42,-46 94,-69 156,-69 57,0 101,20 131,59 25,33 37,57 37,73 0,10 -6,15 -17,15 -8,0 -13,-5 -16,-16 -22,-66 -65,-99 -129,-99 -45,0 -80,21 -107,64 -19,31 -28,78 -29,142 h 270 c 22,0 28,2 28,24 m -89,98 c 11,-33 16,-65 16,-94 h -224 c 3,66 20,111 50,134 25,20 47,30 68,30 45,0 75,-23 90,-70 z" />
            <path
               id="use7"
               d="" />
            <path
               id="use8"
               d="m 3379,705 c -89,0 -155,-72 -155,-161 V 434 h -77 v -38 h 77 V 79 c 0,-19 -3,-31 -10,-35 -7,-4 -29,-5 -66,-5 V 0 l 115,3 c 42,1 85,0 128,-3 v 39 h -24 c -33,0 -54,2 -61,7 -7,5 -10,17 -10,35 v 315 h 112 v 38 h -115 v 111 c 0,60 31,130 86,130 8,0 15,-1 22,-3 -15,-8 -23,-22 -23,-41 0,-31 15,-47 46,-47 31,0 47,16 47,48 0,45 -47,73 -92,73 z" />
            <path
               id="use9"
               d="m 3564,3 111,-3 v 39 c -36,0 -58,1 -65,5 -7,4 -10,16 -10,35 v 615 l -147,-11 v -38 c 35,0 57,-3 64,-9 7,-6 11,-20 11,-43 V 79 c 0,-19 -3,-31 -10,-35 -7,-4 -29,-5 -65,-5 V 0 Z" />
            <path
               id="use10"
               d="m 3892,601 c 0,30 -25,56 -55,56 -30,0 -56,-26 -56,-56 0,-30 25,-57 55,-57 31,0 56,26 56,57 M 3841,3 3945,0 v 39 c -33,0 -53,2 -59,6 -6,4 -8,15 -8,33 v 367 l -143,-12 v -38 c 33,0 54,-3 61,-8 7,-5 10,-19 10,-42 V 79 c 0,-19 -3,-31 -10,-35 -7,-4 -29,-5 -65,-5 V 0 Z" />
            <path
               id="use11"
               d="m 4274,-13 c 62,0 115,22 158,67 43,45 65,98 65,161 0,61 -20,113 -59,157 -41,47 -91,70 -151,70 -51,0 -95,-20 -133,-59 v 59 l -150,-11 v -38 c 37,0 59,-2 66,-7 7,-5 11,-18 11,-39 v -462 c 0,-19 -4,-31 -11,-35 -7,-4 -29,-5 -66,-5 v -39 l 114,3 115,-3 v 39 c -37,0 -58,1 -65,5 -7,4 -11,16 -11,35 V 44 c 22,-31 65,-57 117,-57 m 6,422 c 41,0 73,-23 98,-69 19,-39 29,-80 29,-125 0,-47 -11,-90 -33,-129 -26,-47 -61,-70 -104,-70 -42,0 -75,20 -100,59 -9,13 -13,26 -13,39 v 219 c 29,51 70,76 123,76 z" />
          </g>
        </g>
      </g>
    </g>
  </g>
</svg>
